<svg width="40" height="22" viewBox="0 0 40 22" fill="none" xmlns="http://www.w3.org/2000/svg">
<path d="M0.96 5.912C1.20533 5.86933 1.46667 5.832 1.744 5.8C2.032 5.75733 2.31467 5.72533 2.592 5.704C2.88 5.68267 3.15733 5.66667 3.424 5.656C3.69067 5.64533 3.936 5.64 4.16 5.64C4.68267 5.64 5.19467 5.688 5.696 5.784C6.208 5.88 6.66133 6.04533 7.056 6.28C7.46133 6.51467 7.78133 6.84 8.016 7.256C8.26133 7.66133 8.384 8.17333 8.384 8.792C8.384 9.70933 8.17067 10.456 7.744 11.032C7.31733 11.608 6.74667 12.008 6.032 12.232L6.816 12.728L9.376 17H6.848L4.304 12.616L3.152 12.408V17H0.96V5.912ZM4.32 7.592C4.096 7.592 3.872 7.59733 3.648 7.608C3.43467 7.61867 3.26933 7.64 3.152 7.672V10.92H4.08C4.688 10.92 5.17333 10.7813 5.536 10.504C5.89867 10.2267 6.08 9.768 6.08 9.128C6.08 8.648 5.93067 8.27467 5.632 8.008C5.33333 7.73067 4.896 7.592 4.32 7.592ZM16.665 5.8H18.745V13.032C18.745 13.7573 18.649 14.3813 18.457 14.904C18.265 15.4267 17.9983 15.8587 17.657 16.2C17.3157 16.5413 16.8997 16.792 16.409 16.952C15.9183 17.112 15.3797 17.192 14.793 17.192C11.9557 17.192 10.537 15.896 10.537 13.304V5.8H12.729V12.872C12.729 13.3093 12.7663 13.6827 12.841 13.992C12.9263 14.2907 13.0543 14.536 13.225 14.728C13.3957 14.9093 13.609 15.0427 13.865 15.128C14.121 15.2027 14.4197 15.24 14.761 15.24C15.433 15.24 15.9183 15.0533 16.217 14.68C16.5157 14.3067 16.665 13.704 16.665 12.872V5.8Z" fill="#333333"/>
<path d="M35 14C34.8804 14 34.7647 13.9809 34.6529 13.9427C34.5405 13.9046 34.4469 13.8537 34.3722 13.7901L30.2466 10.2786C30.0822 10.1387 30 9.96056 30 9.74427C30 9.52799 30.0822 9.34987 30.2466 9.20992C30.4111 9.06997 30.6203 9 30.8744 9C31.1285 9 31.3378 9.06997 31.5022 9.20992L35 12.187L38.4978 9.20992C38.6622 9.06997 38.8714 9 39.1256 9C39.3797 9 39.5889 9.06997 39.7534 9.20992C39.9178 9.34987 40 9.52799 40 9.74427C40 9.96056 39.9178 10.1387 39.7534 10.2786L35.6278 13.7901C35.5381 13.8664 35.441 13.9204 35.3363 13.9519C35.2317 13.984 35.1196 14 35 14Z" fill="#5DB7DE"/>
</svg>
