<svg width="46" height="34" viewBox="0 0 46 34" fill="none" xmlns="http://www.w3.org/2000/svg">
<rect width="46" height="34" rx="10" fill="#5DB7DE"/>
<path d="M10.78 12.991C11.144 12.9217 11.5427 12.8697 11.976 12.835C12.418 12.7917 12.8557 12.77 13.289 12.77C13.7397 12.77 14.1903 12.809 14.641 12.887C15.1003 12.9563 15.512 13.1037 15.876 13.329C16.24 13.5457 16.5347 13.8533 16.76 14.252C16.994 14.642 17.111 15.1533 17.111 15.786C17.111 16.358 17.0113 16.8433 16.812 17.242C16.6127 17.632 16.3483 17.9527 16.019 18.204C15.6897 18.4553 15.3127 18.6373 14.888 18.75C14.472 18.8627 14.0387 18.919 13.588 18.919C13.5447 18.919 13.4753 18.919 13.38 18.919C13.2847 18.919 13.185 18.919 13.081 18.919C12.977 18.9103 12.873 18.9017 12.769 18.893C12.6737 18.8843 12.6043 18.8757 12.561 18.867V22H10.78V12.991ZM13.432 14.304C13.2587 14.304 13.094 14.3127 12.938 14.33C12.782 14.3387 12.6563 14.3517 12.561 14.369V17.32C12.5957 17.3287 12.6477 17.3373 12.717 17.346C12.7863 17.3547 12.86 17.3633 12.938 17.372C13.016 17.372 13.0897 17.372 13.159 17.372C13.237 17.372 13.2933 17.372 13.328 17.372C13.562 17.372 13.7917 17.3503 14.017 17.307C14.251 17.2637 14.459 17.1857 14.641 17.073C14.823 16.9517 14.966 16.787 15.07 16.579C15.1827 16.371 15.239 16.098 15.239 15.76C15.239 15.474 15.187 15.24 15.083 15.058C14.979 14.8673 14.8403 14.7157 14.667 14.603C14.5023 14.4903 14.3117 14.4123 14.095 14.369C13.8783 14.3257 13.6573 14.304 13.432 14.304ZM19.5195 12.9C19.7015 12.874 19.9051 12.8523 20.1305 12.835C20.3645 12.8177 20.6028 12.8047 20.8455 12.796C21.0881 12.7873 21.3221 12.783 21.5475 12.783C21.7815 12.7743 21.9895 12.77 22.1715 12.77C22.9775 12.77 23.6665 12.8827 24.2385 13.108C24.8105 13.3333 25.2741 13.6497 25.6295 14.057C25.9848 14.4643 26.2448 14.9497 26.4095 15.513C26.5741 16.0763 26.6565 16.696 26.6565 17.372C26.6565 17.9873 26.5785 18.581 26.4225 19.153C26.2665 19.725 26.0065 20.232 25.6425 20.674C25.2785 21.116 24.7975 21.4713 24.1995 21.74C23.6101 22.0087 22.8778 22.143 22.0025 22.143C21.8638 22.143 21.6775 22.1387 21.4435 22.13C21.2181 22.1213 20.9798 22.1083 20.7285 22.091C20.4858 22.0823 20.2518 22.0693 20.0265 22.052C19.8011 22.0433 19.6321 22.0303 19.5195 22.013V12.9ZM22.3145 14.356C22.1238 14.356 21.9288 14.3603 21.7295 14.369C21.5388 14.3777 21.3958 14.3907 21.3005 14.408V20.505C21.3351 20.5137 21.3915 20.5223 21.4695 20.531C21.5561 20.531 21.6471 20.5353 21.7425 20.544C21.8378 20.544 21.9288 20.5483 22.0155 20.557C22.1021 20.557 22.1671 20.557 22.2105 20.557C22.7131 20.557 23.1291 20.4703 23.4585 20.297C23.7965 20.115 24.0608 19.8767 24.2515 19.582C24.4508 19.2873 24.5895 18.9493 24.6675 18.568C24.7455 18.178 24.7845 17.7793 24.7845 17.372C24.7845 17.0167 24.7498 16.6613 24.6805 16.306C24.6111 15.942 24.4811 15.617 24.2905 15.331C24.1085 15.045 23.8571 14.811 23.5365 14.629C23.2158 14.447 22.8085 14.356 22.3145 14.356ZM29.2364 12.9H34.6314V14.486H31.0174V16.735H34.3454V18.321H31.0174V22H29.2364V12.9Z" fill="white"/>
</svg>
